<svg width="12" height="14" viewBox="0 0 12 14" fill="none" xmlns="http://www.w3.org/2000/svg">
<path d="M0.666687 8.33334H3.33335V13C3.33335 13.1768 3.40359 13.3464 3.52862 13.4714C3.65364 13.5964 3.82321 13.6667 4.00002 13.6667H8.00002C8.17683 13.6667 8.3464 13.5964 8.47143 13.4714C8.59645 13.3464 8.66669 13.1768 8.66669 13V8.33334H11.3334C11.4589 8.33313 11.5818 8.29752 11.688 8.23061C11.7942 8.16371 11.8793 8.06821 11.9337 7.95508C11.9881 7.84196 12.0094 7.7158 11.9953 7.59108C11.9812 7.46636 11.9323 7.34815 11.854 7.25001L6.52069 0.58334C6.26669 0.266674 5.73335 0.266674 5.47935 0.58334L0.14602 7.25001C0.0677795 7.34815 0.0188009 7.46636 0.00470849 7.59108C-0.00938397 7.7158 0.011981 7.84196 0.0663502 7.95508C0.120719 8.06821 0.205889 8.16371 0.312079 8.23061C0.418269 8.29752 0.541176 8.33313 0.666687 8.33334Z" fill="#969696"/>
</svg>
