<svg width="16" height="16" viewBox="0 0 16 16" fill="none" xmlns="http://www.w3.org/2000/svg">
<path d="M13.3333 1.33333H5.33333C4.598 1.33333 4 1.93133 4 2.66666V10.6667C4 11.402 4.598 12 5.33333 12H13.3333C14.0687 12 14.6667 11.402 14.6667 10.6667V2.66666C14.6667 1.93133 14.0687 1.33333 13.3333 1.33333ZM5.33333 10.6667V2.66666H13.3333L13.3347 10.6667H5.33333Z" fill="black"/>
<path d="M2.66671 5.33333H1.33337V13.3333C1.33337 14.0687 1.93137 14.6667 2.66671 14.6667H10.6667V13.3333H2.66671V5.33333Z" fill="black"/>
<path d="M8 7.99999L7.33333 7.33333L6 9.33333H12.6667L10 5.33333L8 7.99999Z" fill="black"/>
</svg>
